PathFileType	4	(X/Y/Z)	D:\TRACE\v60_Jaco2_6-2-23\JustArmDRS_Motion3_1-v60.trc
DataRate	CameraRate	NumFrames	NumMarkers	Units	OrigDataRate	OrigDataStartFrame	OrigNumFrames
100.00	100.00	      13	9	mm	100.00	2023	      8089
Frame#	Time	front left toe			Front right toe			aft left toe			aft right toe			Arm			FL body			FR body			AL Body			AR Body			
		X1	Y1	Z1	X2	Y2	Z2	X3	Y3	Z3	X4	Y4	Z4	X5	Y5	Z5	X6	Y6	Z6	X7	Y7	Z7	X8	Y8	Z8	X9	Y9	Z9	

2023	20.220	-193.66118	15.29076	-238.45306	204.60069	14.46823	-172.78490	-283.19687	24.61413	400.05978	125.44897	21.18928	414.99142	38.60294	1208.79211	-682.06189	-50.86403	584.49176	-355.74609	106.32219	584.03809	-334.27927	-170.09245	583.25873	581.47656	-18.85772	573.85938	600.99457	
2024	20.230	-193.74905	15.27518	-238.41496	204.66245	14.52721	-172.70090	-283.14160	24.52003	400.10196	125.40606	21.14115	414.99954	38.84392	1208.70154	-682.12317	-50.95137	584.43243	-355.75516	106.23944	583.99866	-334.26834	-170.17140	583.26184	581.44061	-18.91881	573.84955	600.97729	
2025	20.240	-193.81387	15.29578	-238.42937	204.57518	14.57323	-172.62376	-282.10538	24.10631	399.98065	125.22998	21.05711	414.97827	38.45832	1208.77625	-682.05157	-50.98324	584.40771	-355.73578	106.14065	583.97681	-334.27878	-170.18117	583.24176	581.45184	-18.96877	573.85095	600.97827	
2026	20.250	-193.86040	15.26974	-238.45345	204.40442	14.54993	-172.72449	-282.18796	24.09713	400.02103	125.29394	21.07426	414.98434	38.41826	1208.77710	-682.01367	-51.04653	584.35736	-355.73068	106.02116	583.96667	-334.24420	-170.23352	583.27051	581.46069	-19.06362	573.85895	600.95538	
2027	20.260	-193.94530	15.30067	-238.41542	204.31505	14.50223	-172.68175	-282.30939	24.07656	399.98569	125.09444	20.99054	414.96243	38.29244	1208.77673	-682.04346	-51.11936	584.31628	-355.71555	105.94669	583.92328	-334.19183	-170.28192	583.24390	581.43646	-19.14824	573.83167	600.95428	
2028	20.270	-194.02290	15.35256	-238.44624	204.04532	14.50609	-172.76073	-282.31558	24.04623	400.00238	125.06435	20.97053	414.95020	38.22819	1208.77515	-682.04077	-51.15599	584.23810	-355.72839	105.84624	583.82684	-334.12747	-170.34648	583.27448	581.41888	-19.31497	573.83221	600.95239	
2029	20.280	-194.13702	15.38294	-238.46631	204.15857	14.55375	-172.58650	-282.41019	23.99879	400.02817	125.01656	21.00236	414.90765	38.20186	1208.75598	-682.01001	-51.23063	584.21722	-355.75912	105.73206	583.77570	-334.11020	-170.41711	583.24841	581.43579	-19.47010	573.79169	600.95746	
2030	20.290	-194.25699	15.43762	-238.49736	203.97324	14.62148	-172.70438	-283.71982	24.47592	400.09290	125.01708	20.99807	414.94470	38.12634	1208.69324	-681.93127	-51.27687	584.16089	-355.76807	105.68103	583.69543	-334.07541	-170.51700	583.24634	581.43073	-19.61287	573.77533	600.96600	
2031	20.300	-194.34818	15.45482	-238.47194	203.69775	14.44277	-172.71710	-283.83368	24.50771	400.08954	124.93015	20.96729	414.90570	37.99257	1208.53271	-681.63800	-51.36718	584.03503	-355.76453	105.58951	583.60785	-334.09702	-170.71744	583.24603	581.42145	-19.76951	573.76672	600.99969	
2032	20.310	-194.40575	15.40533	-238.46899	203.72290	14.50215	-172.64354	-283.91751	24.49972	400.09915	124.91933	20.91499	414.93069	37.88056	1208.31860	-681.27527	-51.44755	584.01099	-355.78052	105.38935	583.55176	-334.11581	-170.89281	583.21857	581.41376	-19.85550	573.74780	601.01355	
2033	20.320	-194.57399	15.46504	-238.45204	203.62689	14.52672	-172.60812	-283.93219	24.41714	400.09805	124.90409	20.91379	414.91971	37.68802	1207.99670	-680.91455	-51.51505	583.94928	-355.79990	105.70273	583.39856	-334.25830	-171.16711	583.28241	581.40515	-20.02259	573.70032	601.02667	
2034	20.330	-194.64604	15.47431	-238.43105	203.62872	14.61718	-172.55670	-283.94577	24.40446	400.12167	124.93267	20.92607	414.94907	37.58245	1207.47266	-680.61676	-51.56774	583.89136	-355.79706	105.66060	583.31140	-334.20801	-171.37617	583.29547	581.38086	-20.08366	573.67206	601.04346	
2035	20.340	-194.77238	15.53956	-238.41420	203.58669	14.62001	-172.56221	-284.00162	24.35176	400.14206	124.91922	20.91897	414.98907	37.27178	1206.93872	-680.32544	-51.67382	583.80707	-355.77829	105.59774	583.22009	-334.15500	-171.62704	583.33746	581.32147	-20.21072	573.66223	601.08105	
